<svg id="demo" xmlns="http://www.w3.org/2000/svg" width="1500" height="750" viewBox="0 0 1500 750" style="opacity: 1; visibility: inherit; transform-origin: 50% 50%; transform: translate(-50%, 0%); height: 636px; width: 1262px;">
  <title>Handwriting With DrawSVG Demo</title>
  <g class="theWords" stroke-linejoin="round">
    <g id="background">
      <rect id="bgBase" width="1500" height="750" rx="10" ry="10"></rect>
      <rect id="bg" x="10" y="10" width="1480" height="730" rx="8" ry="8" fill="#2b2728"></rect>
    </g>
    <g id="handwriting">
      <path fill="red" stroke="black" d="M25.31 29.36L25.31 9.28L30.66 9.28L30.66 59.70L26.75 59.70L25.38 55.23Q21.73 61.14 15.82 61.14L15.82 61.14Q10.37 61.14 7.03 55.86L7.03 55.86Q3.66 50.73 3.66 42.19L3.66 42.19Q3.66 35.19 6.19 30.38L6.19 30.38Q9.53 24.12 15.75 24.12L15.75 24.12Q20.92 24.12 25.31 29.36L25.31 29.36ZM17.05 29.21L17.05 29.21Q13.32 29.21 11.14 33.26L11.14 33.26Q9.28 36.91 9.28 42.26L9.28 42.26Q9.28 48.06 11.00 51.64L11.00 51.64Q13.04 56.04 17.05 56.04L17.05 56.04Q20.67 56.04 23.06 52.42L23.06 52.42Q25.52 48.80 25.52 42.26L25.52 42.26Q25.52 36.95 23.66 33.54L23.66 33.54Q21.38 29.21 17.05 29.21ZM46.76 35.47L40.99 35.47Q42.40 24.08 54.04 24.08L54.04 24.08Q65.74 24.08 65.74 36.63L65.74 36.63L65.74 53.82Q65.74 55.86 67.61 55.86L67.61 55.86Q68.24 55.86 69.33 55.62L69.33 55.62L69.33 60.68Q67.89 61.03 65.88 61.03L65.88 61.03Q61.14 61.03 60.50 55.72L60.50 55.72Q55.62 61.03 49.78 61.03L49.78 61.03Q45.95 61.03 43.49 59.03L43.49 59.03Q40.25 56.43 40.25 51.33L40.25 51.33Q40.25 39.48 60.57 38.07L60.57 38.07L60.57 36.63Q60.57 28.90 54.04 28.90L54.04 28.90Q47.29 28.90 46.76 35.47L46.76 35.47ZM60.57 47.36L60.57 42.61Q45.53 43.35 45.53 51.05L45.53 51.05Q45.53 56.21 50.63 56.21L50.63 56.21Q54.11 56.21 57.41 53.54L57.41 53.54Q60.57 51.05 60.57 47.36L60.57 47.36ZM85.99 25.49L85.99 16.21L91.48 16.21L91.48 25.49L99.95 25.49L99.95 30.66L91.48 30.66L91.48 52.45Q91.48 54.91 94.22 54.91L94.22 54.91Q97.56 54.91 100.44 54.35L100.44 54.35L100.44 59.73Q96.19 60.33 93.13 60.33L93.13 60.33Q85.99 60.33 85.99 53.19L85.99 53.19L85.99 30.66L79.21 30.66L79.21 25.49L85.99 25.49ZM118.76 35.47L112.99 35.47Q114.40 24.08 126.04 24.08L126.04 24.08Q137.74 24.08 137.74 36.63L137.74 36.63L137.74 53.82Q137.74 55.86 139.61 55.86L139.61 55.86Q140.24 55.86 141.33 55.62L141.33 55.62L141.33 60.68Q139.89 61.03 137.88 61.03L137.88 61.03Q133.14 61.03 132.50 55.72L132.50 55.72Q127.62 61.03 121.78 61.03L121.78 61.03Q117.95 61.03 115.49 59.03L115.49 59.03Q112.25 56.43 112.25 51.33L112.25 51.33Q112.25 39.48 132.57 38.07L132.57 38.07L132.57 36.63Q132.57 28.90 126.04 28.90L126.04 28.90Q119.29 28.90 118.76 35.47L118.76 35.47ZM132.57 47.36L132.57 42.61Q117.53 43.35 117.53 51.05L117.53 51.05Q117.53 56.21 122.63 56.21L122.63 56.21Q126.11 56.21 129.41 53.54L129.41 53.54Q132.57 51.05 132.57 47.36L132.57 47.36ZM184.32 49.08L190.02 49.08Q190.97 56.29 198.42 56.29L198.42 56.29Q205.91 56.29 205.91 51.01L205.91 51.01Q205.91 48.48 204.19 47.07L204.19 47.07Q202.36 45.56 197.65 43.91L197.65 43.91L196.63 43.52Q191.43 41.73 189.07 39.94L189.07 39.94Q185.70 37.30 185.70 33.57L185.70 33.57Q185.70 29.11 189.60 26.40L189.60 26.40Q192.97 24.08 197.79 24.08L197.79 24.08Q208.65 24.08 210.38 33.96L210.38 33.96L204.79 33.96Q203.91 28.69 197.72 28.69L197.72 28.69Q191.11 28.69 191.11 33.36L191.11 33.36Q191.11 36.42 199.97 39.55L199.97 39.55Q204.96 41.31 207.14 42.89L207.14 42.89Q211.39 45.91 211.39 50.87L211.39 50.87Q211.39 55.69 207.60 58.50L207.60 58.50Q204.01 61.10 198.28 61.10L198.28 61.10Q185.73 61.10 184.32 49.08L184.32 49.08ZM241.84 48.23L247.68 48.23Q244.86 61.14 234.07 61.14L234.07 61.14Q227.57 61.14 223.77 55.72L223.77 55.72Q220.32 50.77 220.32 42.61L220.32 42.61Q220.32 34.84 223.56 29.88L223.56 29.88Q227.36 24.12 234 24.12L234 24.12Q244.30 24.12 247.11 35.79L247.11 35.79L241.35 35.79Q239.84 29.14 234.07 29.14L234.07 29.14Q230.41 29.14 228.27 32.52L228.27 32.52Q225.95 36.14 225.95 42.61L225.95 42.61Q225.95 47.95 227.53 51.36L227.53 51.36Q229.68 56.11 234.07 56.11L234.07 56.11Q240.47 56.11 241.84 48.23L241.84 48.23ZM266.84 15.75L266.84 9.28L273.16 9.28L273.16 15.75L266.84 15.75ZM267.19 59.70L267.19 25.49L272.81 25.49L272.81 59.70L267.19 59.70ZM314.05 49.08L319.68 49.08Q316.55 61.10 306.07 61.10L306.07 61.10Q299.57 61.10 295.77 55.69L295.77 55.69Q292.32 50.73 292.32 42.61L292.32 42.61Q292.32 34.84 295.56 29.88L295.56 29.88Q299.36 24.12 306 24.12L306 24.12Q318.97 24.12 319.82 43.70L319.82 43.70L297.74 43.70Q298.16 56.29 306.14 56.29L306.14 56.29Q312.47 56.29 314.05 49.08L314.05 49.08ZM297.95 39.09L314.05 39.09Q312.89 28.93 306 28.93L306 28.93Q299.36 28.93 297.95 39.09L297.95 39.09ZM329.27 25.49L333.53 25.49L334.34 29.88Q339.75 24.12 345.02 24.12L345.02 24.12Q350.89 24.12 353.60 29.29L353.60 29.29Q355.11 32.20 355.11 36.35L355.11 36.35L355.11 59.70L349.77 59.70L349.77 37.93Q349.77 29.21 344.18 29.21L344.18 29.21Q340.38 29.21 337.57 31.96L337.57 31.96Q334.62 34.91 334.62 38.74L334.62 38.74L334.62 59.70L329.27 59.70L329.27 25.49ZM385.84 48.23L391.68 48.23Q388.86 61.14 378.07 61.14L378.07 61.14Q371.57 61.14 367.77 55.72L367.77 55.72Q364.32 50.77 364.32 42.61L364.32 42.61Q364.32 34.84 367.56 29.88L367.56 29.88Q371.36 24.12 378 24.12L378 24.12Q388.30 24.12 391.11 35.79L391.11 35.79L385.35 35.79Q383.84 29.14 378.07 29.14L378.07 29.14Q374.41 29.14 372.27 32.52L372.27 32.52Q369.95 36.14 369.95 42.61L369.95 42.61Q369.95 47.95 371.53 51.36L371.53 51.36Q373.68 56.11 378.07 56.11L378.07 56.11Q384.47 56.11 385.84 48.23L385.84 48.23ZM422.05 49.08L427.68 49.08Q424.55 61.10 414.07 61.10L414.07 61.10Q407.57 61.10 403.77 55.69L403.77 55.69Q400.32 50.73 400.32 42.61L400.32 42.61Q400.32 34.84 403.56 29.88L403.56 29.88Q407.36 24.12 414 24.12L414 24.12Q426.97 24.12 427.82 43.70L427.82 43.70L405.74 43.70Q406.16 56.29 414.14 56.29L414.14 56.29Q420.47 56.29 422.05 49.08L422.05 49.08ZM405.95 39.09L422.05 39.09Q420.89 28.93 414 28.93L414 28.93Q407.36 28.93 405.95 39.09L405.95 39.09ZM478.76 35.47L472.99 35.47Q474.40 24.08 486.04 24.08L486.04 24.08Q497.74 24.08 497.74 36.63L497.74 36.63L497.74 53.82Q497.74 55.86 499.61 55.86L499.61 55.86Q500.24 55.86 501.33 55.62L501.33 55.62L501.33 60.68Q499.89 61.03 497.88 61.03L497.88 61.03Q493.14 61.03 492.50 55.72L492.50 55.72Q487.62 61.03 481.78 61.03L481.78 61.03Q477.95 61.03 475.49 59.03L475.49 59.03Q472.25 56.43 472.25 51.33L472.25 51.33Q472.25 39.48 492.57 38.07L492.57 38.07L492.57 36.63Q492.57 28.90 486.04 28.90L486.04 28.90Q479.29 28.90 478.76 35.47L478.76 35.47ZM492.57 47.36L492.57 42.61Q477.53 43.35 477.53 51.05L477.53 51.05Q477.53 56.21 482.63 56.21L482.63 56.21Q486.11 56.21 489.41 53.54L489.41 53.54Q492.57 51.05 492.57 47.36L492.57 47.36ZM509.27 25.49L513.53 25.49L514.34 29.88Q519.75 24.12 525.02 24.12L525.02 24.12Q530.89 24.12 533.60 29.29L533.60 29.29Q535.11 32.20 535.11 36.35L535.11 36.35L535.11 59.70L529.77 59.70L529.77 37.93Q529.77 29.21 524.18 29.21L524.18 29.21Q520.38 29.21 517.57 31.96L517.57 31.96Q514.62 34.91 514.62 38.74L514.62 38.74L514.62 59.70L509.27 59.70L509.27 25.49ZM565.31 29.36L565.31 9.28L570.66 9.28L570.66 59.70L566.75 59.70L565.38 55.23Q561.73 61.14 555.82 61.14L555.82 61.14Q550.37 61.14 547.03 55.86L547.03 55.86Q543.66 50.73 543.66 42.19L543.66 42.19Q543.66 35.19 546.19 30.38L546.19 30.38Q549.53 24.12 555.75 24.12L555.75 24.12Q560.92 24.12 565.31 29.36L565.31 29.36ZM557.05 29.21L557.05 29.21Q553.32 29.21 551.14 33.26L551.14 33.26Q549.28 36.91 549.28 42.26L549.28 42.26Q549.28 48.06 551.00 51.64L551.00 51.64Q553.04 56.04 557.05 56.04L557.05 56.04Q560.67 56.04 563.06 52.42L563.06 52.42Q565.52 48.80 565.52 42.26L565.52 42.26Q565.52 36.95 563.66 33.54L563.66 33.54Q561.38 29.21 557.05 29.21ZM615.30 25.49L619.10 25.49L619.91 28.16Q622.97 24.12 626.31 24.12L626.31 24.12Q629.65 24.12 631.48 28.16L631.48 28.16Q634.68 24.12 638.51 24.12L638.51 24.12Q644.70 24.12 644.70 32.77L644.70 32.77L644.70 59.70L639.53 59.70L639.53 33.75Q639.53 28.72 637.00 28.72L637.00 28.72Q634.71 28.72 633.30 31.25L633.30 31.25Q632.50 32.84 632.50 34.70L632.50 34.70L632.50 59.70L627.47 59.70L627.47 33.68Q627.47 28.72 624.87 28.72L624.87 28.72Q620.47 28.72 620.47 34.63L620.47 34.63L620.47 59.70L615.30 59.70L615.30 25.49ZM658.76 35.47L652.99 35.47Q654.40 24.08 666.04 24.08L666.04 24.08Q677.74 24.08 677.74 36.63L677.74 36.63L677.74 53.82Q677.74 55.86 679.61 55.86L679.61 55.86Q680.24 55.86 681.33 55.62L681.33 55.62L681.33 60.68Q679.89 61.03 677.88 61.03L677.88 61.03Q673.14 61.03 672.50 55.72L672.50 55.72Q667.62 61.03 661.78 61.03L661.78 61.03Q657.95 61.03 655.49 59.03L655.49 59.03Q652.25 56.43 652.25 51.33L652.25 51.33Q652.25 39.48 672.57 38.07L672.57 38.07L672.57 36.63Q672.57 28.90 666.04 28.90L666.04 28.90Q659.29 28.90 658.76 35.47L658.76 35.47ZM672.57 47.36L672.57 42.61Q657.53 43.35 657.53 51.05L657.53 51.05Q657.53 56.21 662.63 56.21L662.63 56.21Q666.11 56.21 669.41 53.54L669.41 53.54Q672.57 51.05 672.57 47.36L672.57 47.36ZM709.84 48.23L715.68 48.23Q712.86 61.14 702.07 61.14L702.07 61.14Q695.57 61.14 691.77 55.72L691.77 55.72Q688.32 50.77 688.32 42.61L688.32 42.61Q688.32 34.84 691.56 29.88L691.56 29.88Q695.36 24.12 702 24.12L702 24.12Q712.30 24.12 715.11 35.79L715.11 35.79L709.35 35.79Q707.84 29.14 702.07 29.14L702.07 29.14Q698.41 29.14 696.27 32.52L696.27 32.52Q693.95 36.14 693.95 42.61L693.95 42.61Q693.95 47.95 695.53 51.36L695.53 51.36Q697.68 56.11 702.07 56.11L702.07 56.11Q708.47 56.11 709.84 48.23L709.84 48.23ZM725.27 59.70L725.27 9.28L730.62 9.28L730.62 29.36Q735.86 24.12 741.02 24.12L741.02 24.12Q746.89 24.12 749.60 29.29L749.60 29.29Q751.11 32.20 751.11 36.35L751.11 36.35L751.11 59.70L745.77 59.70L745.77 37.93Q745.77 29.21 740.18 29.21L740.18 29.21Q736.42 29.21 733.57 31.96L733.57 31.96Q730.62 34.91 730.62 38.71L730.62 38.71L730.62 59.70L725.27 59.70ZM770.84 15.75L770.84 9.28L777.16 9.28L777.16 15.75L770.84 15.75ZM771.19 59.70L771.19 25.49L776.81 25.49L776.81 59.70L771.19 59.70ZM797.27 25.49L801.53 25.49L802.34 29.88Q807.75 24.12 813.02 24.12L813.02 24.12Q818.89 24.12 821.60 29.29L821.60 29.29Q823.11 32.20 823.11 36.35L823.11 36.35L823.11 59.70L817.77 59.70L817.77 37.93Q817.77 29.21 812.18 29.21L812.18 29.21Q808.38 29.21 805.57 31.96L805.57 31.96Q802.62 34.91 802.62 38.74L802.62 38.74L802.62 59.70L797.27 59.70L797.27 25.49ZM854.05 49.08L859.68 49.08Q856.55 61.10 846.07 61.10L846.07 61.10Q839.57 61.10 835.77 55.69L835.77 55.69Q832.32 50.73 832.32 42.61L832.32 42.61Q832.32 34.84 835.56 29.88L835.56 29.88Q839.36 24.12 846 24.12L846 24.12Q858.97 24.12 859.82 43.70L859.82 43.70L837.74 43.70Q838.16 56.29 846.14 56.29L846.14 56.29Q852.47 56.29 854.05 49.08L854.05 49.08ZM837.95 39.09L854.05 39.09Q852.89 28.93 846 28.93L846 28.93Q839.36 28.93 837.95 39.09L837.95 39.09ZM920.81 9.28L920.81 51.82Q920.81 54.91 923.77 54.91L923.77 54.91Q926.19 54.91 929.07 54.35L929.07 54.35L929.07 59.73Q924.82 60.33 922.82 60.33L922.82 60.33Q915.19 60.33 915.19 52.84L915.19 52.84L915.19 9.28L920.81 9.28ZM962.05 49.08L967.68 49.08Q964.55 61.10 954.07 61.10L954.07 61.10Q947.57 61.10 943.77 55.69L943.77 55.69Q940.32 50.73 940.32 42.61L940.32 42.61Q940.32 34.84 943.56 29.88L943.56 29.88Q947.36 24.12 954 24.12L954 24.12Q966.97 24.12 967.82 43.70L967.82 43.70L945.74 43.70Q946.16 56.29 954.14 56.29L954.14 56.29Q960.47 56.29 962.05 49.08L962.05 49.08ZM945.95 39.09L962.05 39.09Q960.89 28.93 954 28.93L954 28.93Q947.36 28.93 945.95 39.09L945.95 39.09ZM982.76 35.47L976.99 35.47Q978.40 24.08 990.04 24.08L990.04 24.08Q1001.74 24.08 1001.74 36.63L1001.74 36.63L1001.74 53.82Q1001.74 55.86 1003.61 55.86L1003.61 55.86Q1004.24 55.86 1005.33 55.62L1005.33 55.62L1005.33 60.68Q1003.89 61.03 1001.88 61.03L1001.88 61.03Q997.14 61.03 996.50 55.72L996.50 55.72Q991.62 61.03 985.78 61.03L985.78 61.03Q981.95 61.03 979.49 59.03L979.49 59.03Q976.25 56.43 976.25 51.33L976.25 51.33Q976.25 39.48 996.57 38.07L996.57 38.07L996.57 36.63Q996.57 28.90 990.04 28.90L990.04 28.90Q983.29 28.90 982.76 35.47L982.76 35.47ZM996.57 47.36L996.57 42.61Q981.53 43.35 981.53 51.05L981.53 51.05Q981.53 56.21 986.63 56.21L986.63 56.21Q990.11 56.21 993.41 53.54L993.41 53.54Q996.57 51.05 996.57 47.36L996.57 47.36ZM1018.51 25.49L1024.00 25.49L1024.00 32.70Q1030.22 26.12 1037.32 24.12L1037.32 24.12L1037.32 30.38Q1029.16 32.34 1024.00 39.23L1024.00 39.23L1024.00 59.70L1018.51 59.70L1018.51 25.49ZM1049.27 25.49L1053.53 25.49L1054.34 29.88Q1059.75 24.12 1065.02 24.12L1065.02 24.12Q1070.89 24.12 1073.60 29.29L1073.60 29.29Q1075.11 32.20 1075.11 36.35L1075.11 36.35L1075.11 59.70L1069.77 59.70L1069.77 37.93Q1069.77 29.21 1064.18 29.21L1064.18 29.21Q1060.38 29.21 1057.57 31.96L1057.57 31.96Q1054.62 34.91 1054.62 38.74L1054.62 38.74L1054.62 59.70L1049.27 59.70L1049.27 25.49ZM1094.84 15.75L1094.84 9.28L1101.16 9.28L1101.16 15.75L1094.84 15.75ZM1095.19 59.70L1095.19 25.49L1100.81 25.49L1100.81 59.70L1095.19 59.70ZM1121.27 25.49L1125.53 25.49L1126.34 29.88Q1131.75 24.12 1137.02 24.12L1137.02 24.12Q1142.89 24.12 1145.60 29.29L1145.60 29.29Q1147.11 32.20 1147.11 36.35L1147.11 36.35L1147.11 59.70L1141.77 59.70L1141.77 37.93Q1141.77 29.21 1136.18 29.21L1136.18 29.21Q1132.38 29.21 1129.57 31.96L1129.57 31.96Q1126.62 34.91 1126.62 38.74L1126.62 38.74L1126.62 59.70L1121.27 59.70L1121.27 25.49ZM1179.07 25.49L1182.80 25.49L1182.80 55.72Q1182.80 70.03 1169.65 70.03L1169.65 70.03Q1158.40 70.03 1156.46 58.96L1156.46 58.96L1162.09 58.96Q1163.04 65.21 1169.79 65.21L1169.79 65.21Q1177.63 65.21 1177.63 56.14L1177.63 56.14L1177.63 50.31Q1173.87 54.70 1168.56 54.70L1168.56 54.70Q1162.83 54.70 1159.03 50.17L1159.03 50.17Q1155.59 45.95 1155.59 39.66L1155.59 39.66Q1155.59 35.09 1157.38 31.61L1157.38 31.61Q1161.18 24.12 1168.84 24.12L1168.84 24.12Q1174.18 24.12 1177.84 28.44L1177.84 28.44L1179.07 25.49ZM1169.33 29.07L1169.33 29.07Q1165.36 29.07 1163.00 32.59L1163.00 32.59Q1161.07 35.40 1161.07 39.59L1161.07 39.59Q1161.07 43.95 1163.21 46.86L1163.21 46.86Q1165.54 50.03 1169.40 50.03L1169.40 50.03Q1172.60 50.03 1174.82 47.57L1174.82 47.57Q1177.77 44.40 1177.77 39.66L1177.77 39.66Q1177.77 34.95 1175.24 31.89L1175.24 31.89Q1172.78 29.07 1169.33 29.07Z" style="stroke: rgb(70, 164, 204); stroke-dashoffset: 0.001; stroke-dasharray: 0px, 999999px; opacity: 1; visibility: inherit;"></path>
      <path id="hPipe" d="M236.07,153.69c-3.55-1.68-8,.46-10.13,3.73s-2.66,7.34-3.09,11.24l-8.29,75c-4,36-7.93,72.65-1.11,108.22" fill="none" stroke="#fff" stroke-linecap="round" stroke-miterlimit="10" stroke-width="14" style="stroke: rgb(70, 164, 204); stroke-dashoffset: 0; stroke-dasharray: none; opacity: 1; visibility: inherit;"></path>
      <path id="hBody" d="M364.08,140.94c-10.74,20.86-12.65,45-14.36,68.4-2.67,36.51-5.33,73-6.58,109.62-.37,10.82-1.14,22.88-9.07,30.26-5.67,5.28-14,6.9-21.69,6s-14.9-4.1-21.9-7.41c-14.49-6.85-28.74-14.53-41-24.84s-22.54-23.47-27.37-38.75c-1.08-3.43-1.88-7.19-.66-10.57,2.15-6,9.3-8.14,15.5-9.43a685.2,685.2,0,0,1,141.5-14.29" fill="none" stroke="#fff" stroke-linecap="round" stroke-miterlimit="10" stroke-width="10" style="stroke: rgb(70, 164, 204); stroke-dashoffset: 0; stroke-dasharray: none; opacity: 1; visibility: inherit;"></path>
      <path id="tCross" d="M936.82,232.3l126.7.62" fill="none" stroke="#fff" stroke-linecap="round" stroke-miterlimit="10" stroke-width="10" style="stroke: rgb(70, 164, 204); stroke-dashoffset: 0; stroke-dasharray: none; opacity: 1; visibility: inherit;"></path>
      <path id="mainPath" d="M430.67,293.63c-.14-17.07-11.85-15.24-19.57-12.45-9.24,3.33-15,11.36-20.07,19.79-5.88,9.83-6.93,27.7-4.74,36.25,1.47,5.74,2,14.62,18.85,11.58,12.56-2.26,24.65-29.75,26.79-40.5.28-1.41-2.19-2.77-3.23-.29-4,9.64-2.92,37.15,12.84,39.65,16.59,2.63,24.24-7.82,32.52-16.85,7.68-8.38,15.36-25.09,19.87-35.55a3.26,3.26,0,0,1,1.41-1.35,2,2,0,0,1,3,1.65l2.31,45.08c1.81,5.21,4.9,5.71,7.06,4,9.62-7.77,22.94-41.78,29-55.92.88-2,5.33-.89,5.25,1.33-.23,6.13-5.25,26.5-4.85,36.35.43,10.45,10.62,19.45,21,21,16.73,2.52,29-14.82,36.71-29.9,7.1-13.93,17.7-34.07,32.52-35.25,2.54-.2,3.65,1,.61,1.86-12.76,3.64-22.57,18.79-28.57,30.47-4.18,8.14-10.46,33.39,12.41,36.22,13,1.61,23.54-14.43,29.6-26C662.59,284.09,680,233.82,681.5,188a4,4,0,0,0-3.27-4c-6.59-1.16-12.72,5.94-17.07,12.35-4.52,6.66-8.36,16.89-10.19,24.72-6.47,27.59-13.52,54.09-12,82.39,1,18.52,7.07,40.91,25.1,45.26,11.57,2.8,24.74-3.09,31.13-13.13,6.09-9.55,16.65-34.29,19.66-44.43.78-2.62,0-3-1.71-.9-9.69,12.2-8.24,57.4,7.87,59.84,15,2.26,35.28-32.75,32.41-48.23-1.8-9.68-3.74-7.47-4.54,2.34s1.67,40.69,11.55,42.88c13,2.86,21.49-10.74,26.08-22.68,4.2-10.94,8.74-38.81,6.93-45.29-.69-2.46-2.11-3.44-3.47-1.28-7.07,11.29-7.29,32-.38,42.1a9.86,9.86,0,0,0,5.21,3.81c13.14,4.12,24.61,2.69,34.39-9.18,9.63-11.7,22.93-48.6,14.49-44.34-5.17,2.79,5.18,34,21.65,15.61,1.47-1.64,8.54,3.8,6.9,6.73-14.56,26.06-13.79,49.36,5.78,54.18,20,4.91,50.24-28.82,49.09-49.15a1,1,0,0,0-1.92-.36c-6.07,13.62-.64,50.56,14.69,53,16.39,2.57,32.33-15.23,40.63-29.59s10.35-30.64,12.42-47.1c1.6-12.72,3.53-39.19,8.39-54.48,2.68-8.45,4.48-8.08,3.83.76-3,41.73-11.71,63.65-13.69,93.66-.81,12.26,0,12.19,3.45,18.55,9.75,17.77,27.08,13.16,38,5.44,11.2-7.89,24.9-25.72,24.84-38.85,0-.52-1.06-2.94-3-1.86-11.19,6.25-4.39,42,8.06,50.8,12,8.44,29-1.39,37.94-13.06A102.11,102.11,0,0,0,1111,319.25c3.9-7.18,13.18-29.34,18.25-24.37,5.78,5.66,2,29.55.83,41.08-.42,4.13-.42,6.42,3.58,7.79,5.4,1.85,13.12-6.36,15.25-12.21,2.62-7.2,4.9-12.58,7-19.33,2.21-7,9.68-23,11.65-23.83.9-.4,3-.19,3.4.83,4,10.37-8.26,27.83.49,47.91,2.52,5.79,5,11.34,19.75,10.5,10.29-.58,16.59-7.64,21.53-11.83,9.75-8.29,13.91-21.23,21.66-31.42,5.09-6.69,13.58-23.94,23.6-23.86,18.89.16,15.56,15.64,12.41,11-7.56-11.14-16.88-8.77-31.05,10.95-7.35,10.23-14.42,33-7.13,43.27,9.09,12.83,24.2,2.83,32.6-10.46,3.53-5.59,11.09-27,12.36-33.42,2.72-13.69,15.12-24.92,8.61-12.57-23,43.61-9.36,98.77-12,148-.66,12.51,1.75,19.5-10.58,46.33-5.28,11.49-18.3,22.54-28.53,17.4-10.67-5.37-6.58-29.85-4.77-41.11,6.29-39,44.46-101,60.67-99.79" fill="none" stroke="#fff" stroke-linecap="round" stroke-miterlimit="10" stroke-width="10" style="stroke: rgb(70, 164, 204); stroke-dashoffset: 0; stroke-dasharray: none; opacity: 1; visibility: inherit;"></path>
      <ellipse id="dot2" cx="926.5" cy="268.98" rx="9.68" ry="8.1" transform="translate(538.8 1152.4) rotate(-82.49)" fill="#fff" style="fill: rgb(70, 164, 204); opacity: 1; visibility: inherit;"></ellipse>
      <ellipse id="dot1" cx="1056.39" cy="268.98" rx="9.68" ry="8.1" transform="translate(651.72 1281.18) rotate(-82.49)" fill="#fff" style="fill: rgb(70, 164, 204); opacity: 1; visibility: inherit;"></ellipse>
    </g>
    <g id="is">
      <ellipse id="dot3" cx="475.71" cy="403.96" rx="9.68" ry="8.1" transform="translate(13.06 822.82) rotate(-82.49)" fill="#fff" style="fill: rgb(70, 164, 204); opacity: 1; visibility: inherit;"></ellipse>
      <path id="isPath" d="M474.84,432c-1.93,6.86-2.64,14-3.19,21.1s.38,14.5,3.9,20.7,9.89,11,17,11.49c5.95.4,11.8-2.21,16.38-6s7.65-9.06,11.34-13.74c14.7-18.62,24.95-45.15,32.25-66.63a3.24,3.24,0,0,1,1.69-1.95c4.45-2,1.7,14.29,3.73,19.79,2.36,6.43,7.19,13.94,8.41,20.68s1.13,13.89-1.52,20.2-10.93,14.15-18.67,14.17c-2.78,0-6.33-1.83-10.75-8.05-1.22-1.71-3.57,1.63-2.19,3.21,5.93,6.77,9.31,15.94,27.43,17.63,20.89,2,27-3.29,37.06-12.16s16.62-21.25,20-34.24" fill="none" stroke="#fff" stroke-linecap="round" stroke-miterlimit="10" stroke-width="10" style="stroke: rgb(70, 164, 204); stroke-dashoffset: 0; stroke-dasharray: none; opacity: 1; visibility: inherit;"></path>
    </g>
    <g id="easy">
      <ellipse id="dot4" cx="1022.69" cy="485.51" rx="9.68" ry="8.1" transform="translate(407.74 1436.01) rotate(-82.49)" fill="#fff" style="fill: rgb(70, 164, 204); opacity: 0; visibility: hidden;"></ellipse>
      <path id="easyPath" d="M706,468.5l16.63-30.31c2.57-4.68,5.19-9.54,5.59-14.85s-1.79-13-6.77-15c-4.61-1.77-10.26,2.23-13.62,5.85s-5.13,8.39-6.77,13c-3,8.5-5.91,17.22-6.09,26.23s2.3,19.11,9.67,24.3c14.3,10.07,22.07,12.2,42.18-4.68,11.95-10,17.78-26.68,25.25-40.37,3.3-6.06,7-11.63,12.5-15.75a17.35,17.35,0,0,1,18.13-2.12c4.54,2,7.6,8.81,8.08,13,.26,2.27-.38,2.44-1.24.33-2.18-5.34-5-13.24-14.22-13.12-7.58.1-13.91,6.87-18.37,13a63.26,63.26,0,0,0-9.61,19.46c-3,9.87-4.86,24.65,2.36,32,10.88,11.13,18.46,3.12,25.63-5.25,6-7.07,11.31-23.58,13-33.12.21-1.19,4.22,0,3.78,1.16-3,7.67-6.6,21.23-3,28.5,7.43,14.84,18,14.65,25.43,11.18s15.06-8.81,19.78-15.6,7.14-15.07,10-22.82c4.93-13.14,11.65-30.26,17-43.84a2.41,2.41,0,0,1,4.58.32c2.25,9.18,1.87,21.66,6.58,30.19,5.27,9.51,5.81,23.11-.33,32.08-4.41,6.45-15.92,13.67-24.67,2-1-1.3-5.16,3.7-1.92,7,19,19.33,36.41,18.61,50.58,9.17,16.34-10.89,28.88-32.53,32.83-49.54,1.33-5.72,3-5.79,2,0-1.15,6.88-3.69,20.66-5.07,27.06-2.55,11.79.62,25.55,11.82,24.88,4-.24,7.55-1.35,10.12-3.84,10.2-9.93,10.48-14,12.55-18.62l15.69-38.84c1.81-4.51,6.22-2,3.2,2.33-9.8,14-14.43,110.52-22.54,147.65a85.79,85.79,0,0,1-10.08,25.25c-6,10.5-11.55,10.85-19.33,9.42-7-1.28-11.42-10.59-13.33-17.42s-1.35-13.82.5-20.67C944.5,531.63,966,488,995.88,492.38" fill="none" stroke="#fff" stroke-linecap="round" stroke-miterlimit="10" stroke-width="10" style="stroke: rgb(70, 164, 204); stroke-dashoffset: 0; stroke-dasharray: none; opacity: 1; visibility: inherit;"></path>
    </g>
  </g>    
    <g id="hand" data-svg-origin="70 80" transform="matrix(1,0,0,1,996.6394,332.2704)" style="transform-origin: 0px 0px;">
<rect id="groupSizer" width="140" height="160" style="opacity: 0; visibility: hidden;"></rect>
      <path d="M55.25,55.9,48.63,82.66s-27.58,40.19-26.86,16C23.31,47.27,55.25,55.9,55.25,55.9Z" fill="#f49f58"></path>
      <path d="M77.45,30.06C75.95,29.74,27.15,45,24.08,46.12S13.72,48,11.42,53.79s0,16.5,0,21.1-1.15,33.38-.77,37.6c.24,2.7,3.45,5.37,6.52,5.75s8.06-4.6,9.21-7.67,6.52-40.67,7.29-43.35,13-1.15,15.73-1.15,26.47,23.4,26.47,26.86-14.19,19.57-16.11,19.57-29.63,6.77-31.46,8.06c-3.84,2.69-6.93,9.81-5.75,16.88.77,4.6,6.14,6.14,10.36,5.76,3.62-.33,24.17-1.53,30.69-1.92,4.28-.25,12.66-3.84,15-5.37S97,121.7,98.12,119.78s15.08-12.56,17.26-16.69c3.45-6.52,14.39-48.34,13.24-50.07C123.39,45.17,83.76,31.37,77.45,30.06Z" fill="#ffc585"></path>
      <path d="M119.82,46.59c-7.44-4-18-8.3-26.85-11.51h0C81.87,48.19,69.38,60,56.92,71.77h0c7.89,7.16,19,18.8,19,21.15,0,1.58-3,5.82-6.39,9.95h0c1.15,0,8.42,8.43,21.74-4.39C111.74,78.73,119,66.42,120.74,56.26A17,17,0,0,0,119.82,46.59Z" fill="#ffc585" opacity="0.4" style="mix-blend-mode: multiply"></path>
      <path d="M14.1,70.29c-2.3,7.29-9.8,45.47-10,49.11-.21,4.32,1.83,7.15,5.75,6.91,3.39-.21,8.58-2.94,10.36-6.14,3.34-6,4.19-5.22,11.13-50.26Z" fill="#ffc585"></path>
      <path d="M14.1,70.29c-2.3,7.29-9.8,45.47-10,49.11-.21,4.32,1.83,7.15,5.75,6.91,3.39-.21,8.58-2.94,10.36-6.14,3.34-6,4.19-5.22,11.13-50.26Z" fill="#ffc585" opacity="0.4" style="mix-blend-mode: multiply"></path>
      <g>
        <path d="M115.22,36.89s-4.3,37.94-5.1,39.36S83.83,106.38,81.9,107.18,69.43,109.49,71.37,105s7.33-2.93,8.17-3.66S101.42,75.61,102,74.43s.74-30,.74-30Z" fill="#363f4f"></path>
        <path d="M113.07,39.08s-3.87,36-4.66,37.41S83.11,106.2,81.18,107s-11.75,2.49-9.81-2,7.33-2.93,8.17-3.66S101.42,75.61,102,74.43s.74-30,.74-30Z" fill="#4b5668"></path>
        <path d="M111.25,55.36c1-8.48,1.81-16.28,1.81-16.28l-10.31,5.4s-.08,15.28-.35,24C103.3,67.19,108.68,59.83,111.25,55.36Z" fill="#4b5668" opacity="0.4" style="mix-blend-mode: multiply"></path>
        <path d="M71.55,107.11c2.19-3.36,7.43-5.35,7.69-5.61-1.41.38-6.08-.56-7.86,3.53A1.73,1.73,0,0,0,71.55,107.11Z" fill="#4b5668" opacity="0.4" style="mix-blend-mode: multiply"></path>
        <path d="M33.23,86.72c10.08,3.3,24,15.06,29.31,25.8L58,117.38c-10.6-4-25.41-17.87-28-25.83Z" fill="#edbd15"></path>
        <path d="M46.16,94c-2.09,3-4.54,5.8-6.79,8.77-.24.32-.47.65-.7,1,5.75,5.83,13.22,11.38,19.3,13.65l4.57-4.85C59.32,106,52.93,99.13,46.16,94Z" fill="#edbd15" style="mix-blend-mode: multiply"></path>
        <path d="M3.79,149.09s-3.57,7.55-2.42,8.58c1.52,1.36,7.71-4.53,7.71-4.53Z" fill="#c6d0d5"></path>
        <path d="M7.95,150.39c-1.11,2.4-3.21,5.47-5.9,6.3a3.13,3.13,0,0,1-.73.13.78.78,0,0,0,.21.51c1.52,1.36,7.71-4.53,7.71-4.53Z" fill="#c7d1d6" style="mix-blend-mode: multiply"></path>
        <path d="M1.95,149.82c3.16-8.14,17.61-40.14,31.5-61.3,8.37-12.75,53.86-84,78.16-64.8,21.59,17-31.06,69.86-52.81,90.88C42,130.87,11.55,153.39,9.34,154.72S1.34,151.39,1.95,149.82Z" fill="#4b5668"></path>
        <path d="M49,113.63c-6.42,6.38-20.09,20-29.15,28.48C11,150.42,6.2,152.81,4.59,153.36c1.65,1.19,3.64,2,4.75,1.36,2.22-1.33,32.63-23.85,49.45-40.11C78,96.07,121.16,52.8,116.31,31.15c0,2.37-7.76,3.86-12,13.2C95.55,63.76,63.76,99,49,113.63Z" fill="#4b5668" opacity="0.4" style="mix-blend-mode: multiply"></path>
        <path d="M92.86,47.91c7.9,6.12,17.67,6.77,19.08,3.07,5.75-11.47,7-21.45-.34-27.26-8-6.33-18.36-2.79-28.91,5.24C80.46,32.85,84.33,41.31,92.86,47.91Z" fill="#69778b"></path>
        <path d="M83.79,28.14C94,20.69,103.86,17.61,111.6,23.72c7.17,5.66,6.15,15.26.79,26.34C106.53,58.36,80.56,40.72,83.79,28.14Z" fill="#edbd15"></path>
        <path d="M116.31,31.11c-.65,10.45-11.22,20.6-22,15.52,6.91,5.15,15.12,7.66,18.12,3.43C115.86,42.91,117.5,36.37,116.31,31.11Z" fill="#edbd15" style="mix-blend-mode: multiply"></path>
        <path d="M10.5,130.62c-4.17,8.76-7.28,15.93-8.55,19.21-.61,1.56,5.17,6.22,7.39,4.9,1-.59,7.45-5.31,15.83-11.79C20.75,141.85,11.74,135.18,10.5,130.62Z" fill="#edbd15"></path>
        <path d="M10.5,130.62c-1.89,4.89,10,12.92,14.67,12.31C20.75,141.85,11.74,135.18,10.5,130.62Z" fill="#feee28"></path>
        <path d="M2.51,151.41a8,8,0,0,0,.9,1c2.45-3.69,7.82-11.23,11.22-16a19.94,19.94,0,0,1-3-3.41C8.87,137.68,5,146,2.51,151.41Z" fill="#edbd15" style="mix-blend-mode: screen"></path>
        <path d="M20.4,140.73c-4.19,5-9,9.31-13.71,13.83a3.09,3.09,0,0,0,2.64.16c1-.59,7.45-5.31,15.83-11.79A18.38,18.38,0,0,1,20.4,140.73Z" fill="#edbd15" style="mix-blend-mode: multiply"></path>
        <path d="M33.23,86.72c4.3,8.5,19.27,22.52,29.31,25.8L58,117.38c-10.6-4-25.41-17.87-28-25.83Z" fill="#feee28"></path>
        <path d="M33.23,86.72c3.3,10,19.4,24.28,29.31,25.8L58,117.38c-10.6-4-25.41-17.87-28-25.83Z" fill="#edbd15"></path>
        <path d="M53.09,107.47a38.21,38.21,0,0,0,9.45,5.06L58,117.38a43,43,0,0,1-9.29-5.15C50.14,110.87,51.15,109.6,53.09,107.47Z" fill="#edbd15" style="mix-blend-mode: multiply"></path>
        <path d="M39,94.81c-.92-1-1.78-2.09-2.55-3.1-1.26,1.68-2.45,3.41-3.59,5.18.6.86,1.28,1.73,2,2.62A61.6,61.6,0,0,1,39,94.81Z" fill="#edbd15" style="mix-blend-mode: screen"></path>
        <path d="M3.45,153c1,.55-1.26,3.33-1.42,2.73S2.63,152.54,3.45,153Z" fill="#c7d1d6" opacity="0.7" style="mix-blend-mode: screen"></path>
        <path d="M107.61,75.33c.49-1.63-25.92,28.23-25.4,28.92S106.8,78,107.61,75.33Z" fill="#4b5668" opacity="0.7" style="mix-blend-mode: screen"></path>
        <path d="M101.93,22c-3.44-.3-9,3-8.18,4.61,2.2,4.21,12.06,2,12.88,0C107.76,23.75,103.74,22.19,101.93,22Z" fill="#edbd15" opacity="0.4" style="mix-blend-mode: screen"></path>
        <path d="M81,41.38c-5.59.22-35.49,37.16-38.3,46.24,3.74-1.84,11.19-13.24,18.86-22.54C70.83,53.89,80.15,44.46,81,41.38Z" fill="#4b5668" opacity="0.4" style="mix-blend-mode: screen"></path>
        <path d="M32.75,100.8c-3.63,2.63-15.13,19.8-17.94,28.88C18.78,125.16,31.85,103.88,32.75,100.8Z" fill="#4b5668" opacity="0.4" style="mix-blend-mode: screen"></path>
      </g>
      <path d="M43.35,65.72C43.74,64.29,71.25,36,73.6,31.06c-8.52,2.7-47.07,14.14-49.52,15.06C21,47.27,13.72,48,11.42,53.79s0,16.5,0,21.1-1.15,33.38-.77,37.6c.24,2.7,3.45,5.37,6.52,5.75s8.06-4.6,9.21-7.67,6.52-40.67,7.29-43.35C34.14,65.55,39,65.51,43.35,65.72Z" fill="#ffc585"></path>
      <path d="M69.51,111.93a10.24,10.24,0,0,1-4.45-3.18c-2.5,2.3-4.66,3.74-5.3,3.74-1.92,0-29.63,6.77-31.46,8.06-3.84,2.69-6.93,9.81-5.75,16.88.77,4.6,6.14,6.14,10.36,5.76,3.62-.33,24.17-1.53,30.69-1.92,4.28-.25,12.66-3.84,15-5.37S97,121.7,98.12,119.78C98.3,119.48,73.84,113.57,69.51,111.93Z" fill="#ffc585"></path>
      <path d="M27.53,124.77c2.69-2.69,15-2.3,15.35-.38s.38,10-.38,12.28-14.19,5-15.73,2.69C23.39,134.28,25.1,127.19,27.53,124.77Z" fill="#ffd5b8"></path>
      <path d="M19,116a81.46,81.46,0,0,0-.29-14.29c-.34-1.68-6.65-1.76-8-2.1-.15,6-.23,11.23-.08,12.84C10.89,115.19,17.27,117.77,19,116Z" fill="#ffd5b8"></path>
      <path d="M117,91.87c-8.53,11-35.2,38.27-45.36,42.58-9.4,4-40.57,9.5-49.11,3,.77,4.6,6.14,6.14,10.36,5.76,3.62-.33,24.17-1.53,30.69-1.92,4.28-.25,12.66-3.84,15-5.37S97,121.7,98.12,119.78s15.08-12.56,17.26-16.69c1.12-2.12,3-7.94,5.05-14.91C119.34,89.44,118,90.54,117,91.87Z" fill="#ffc585" opacity="0.4" style="mix-blend-mode: multiply"></path>
      <path d="M26.38,110.57c1.15-3.07,6.52-40.67,7.29-43.35.54-1.89,6.78-1.69,11.37-1.41.76,0-11.61-4.73-14-1.47-3.27,4.54-3.16,35.87-12,50.07a5.88,5.88,0,0,1-5.31,2.53,8.13,8.13,0,0,0,3.39,1.31C20.24,118.63,25.23,113.64,26.38,110.57Z" fill="#ffc585" opacity="0.4" style="mix-blend-mode: multiply"></path>
    </g>

</svg>